<?xml version="1.0" encoding="UTF-8"?>
<svg viewBox="0 0 1000 700" xmlns="http://www.w3.org/2000/svg" id="map">
  <defs>
    <filter id="wobble" x="-2%" y="-2%" width="104%" height="104%">
      <feTurbulence type="fractalNoise" baseFrequency="0.018" numOctaves="2" seed="3" />
      <feDisplacementMap in="SourceGraphic" scale="1.8" />
    </filter>
    <filter id="wobble-soft" x="-2%" y="-2%" width="104%" height="104%">
      <feTurbulence type="fractalNoise" baseFrequency="0.04" numOctaves="2" seed="7" />
      <feDisplacementMap in="SourceGraphic" scale="1.0" />
    </filter>
    <filter id="grain">
      <feTurbulence type="fractalNoise" baseFrequency="1.4" numOctaves="2" seed="1" />
      <feColorMatrix values="0 0 0 0 0  0 0 0 0 0  0 0 0 0 0  0 0 0 0.06 0"/>
      <feComposite in2="SourceGraphic" operator="in"/>
    </filter>

    <!-- patterns -->
    <pattern id="meadow" patternUnits="userSpaceOnUse" width="26" height="26">
      <rect width="26" height="26" fill="#b3b285"/>
      <path d="M3 18 q1 -4 2 0 M9 22 q1 -3 2 0 M16 16 q1 -4 2 0 M21 21 q1 -3 2 0 M14 7 q1 -3 2 0"
            stroke="#8d8862" stroke-width="0.55" fill="none" opacity="0.7"/>
      <circle cx="6" cy="5" r="0.5" fill="#7a754f" opacity="0.55"/>
      <circle cx="19" cy="10" r="0.5" fill="#7a754f" opacity="0.55"/>
    </pattern>
    <pattern id="forest-floor" patternUnits="userSpaceOnUse" width="32" height="32">
      <rect width="32" height="32" fill="#3a4731"/>
      <circle cx="6" cy="8" r="1.2" fill="#2b3624" opacity="0.7"/>
      <circle cx="22" cy="18" r="0.9" fill="#2b3624" opacity="0.7"/>
      <circle cx="14" cy="26" r="1.1" fill="#2b3624" opacity="0.7"/>
      <circle cx="28" cy="6" r="0.7" fill="#4b5b3e" opacity="0.6"/>
    </pattern>
    <pattern id="rock" patternUnits="userSpaceOnUse" width="14" height="14">
      <rect width="14" height="14" fill="#cdc4a3"/>
      <circle cx="3" cy="4" r="0.7" fill="#a89b76" opacity="0.7"/>
      <circle cx="10" cy="9" r="0.5" fill="#a89b76" opacity="0.6"/>
      <circle cx="6" cy="12" r="0.4" fill="#8a7e5e" opacity="0.5"/>
    </pattern>
    <pattern id="water" patternUnits="userSpaceOnUse" width="20" height="20">
      <rect width="20" height="20" fill="#7da9b8"/>
      <path d="M0 6 q5 -2 10 0 t10 0 M0 14 q5 -2 10 0 t10 0" stroke="#a8c8d4" stroke-width="0.6" fill="none" opacity="0.7"/>
    </pattern>
    <pattern id="asphalt" patternUnits="userSpaceOnUse" width="18" height="18">
      <rect width="18" height="18" fill="#3e3a34"/>
      <circle cx="4" cy="5" r="0.6" fill="#55504a" opacity="0.7"/>
      <circle cx="12" cy="11" r="0.5" fill="#55504a" opacity="0.7"/>
      <circle cx="8" cy="15" r="0.4" fill="#2a2722" opacity="0.7"/>
    </pattern>
    <pattern id="dirt" patternUnits="userSpaceOnUse" width="12" height="12">
      <rect width="12" height="12" fill="#a08866"/>
      <circle cx="3" cy="4" r="0.7" fill="#7a6044" opacity="0.7"/>
      <circle cx="9" cy="9" r="0.6" fill="#705a3e" opacity="0.6"/>
    </pattern>
    <pattern id="paddock" patternUnits="userSpaceOnUse" width="9" height="9">
      <rect width="9" height="9" fill="#a89c74"/>
      <path d="M0 4.5 h9 M4.5 0 v9" stroke="#7c7050" stroke-width="0.4" opacity="0.4"/>
    </pattern>
    <pattern id="pooltile" patternUnits="userSpaceOnUse" width="6" height="6">
      <rect width="6" height="6" fill="#6a8a8e"/>
      <path d="M0 3 h6 M3 0 v6" stroke="#4a6e72" stroke-width="0.4"/>
    </pattern>

    <linearGradient id="beamGrad" x1="140" y1="585" x2="140" y2="300" gradientUnits="userSpaceOnUse">
      <stop offset="0%" stop-color="#fff6c8" stop-opacity="0.6"/>
      <stop offset="100%" stop-color="#fff6c8" stop-opacity="0"/>
    </linearGradient>

    <!-- TREES -->
    <g id="tree">
      <circle cx="0" cy="0" r="10" fill="#2c3a25" />
      <circle cx="-2" cy="-2" r="7.5" fill="#3e4f33" />
      <circle cx="1" cy="-1" r="4.5" fill="#4f6342" />
    </g>
    <g id="tree-dark">
      <circle cx="0" cy="0" r="12" fill="#222d1c" />
      <circle cx="-3" cy="-3" r="9" fill="#324128" />
      <circle cx="2" cy="-1" r="5" fill="#42563a" />
    </g>
    <g id="tree-pine">
      <polygon points="0,-10 8,8 -8,8" fill="#2a3a26"/>
      <polygon points="0,-6 6,6 -6,6" fill="#3a4d32"/>
      <polygon points="0,-2 4,4 -4,4" fill="#4a6240"/>
    </g>

    <!-- FARAWAY/BOTTLE TREE -->
    <g id="faraway-tree">
      <circle cx="0" cy="0" r="18" fill="#1d2616"/>
      <circle cx="-3" cy="-3" r="14" fill="#2b3a22"/>
      <circle cx="3" cy="-2" r="9" fill="#3b4e2e"/>
      <path d="M0 0 L-14 -10 M0 0 L13 -11 M0 0 L-11 11 M0 0 L14 8 M0 0 L0 -17"
            stroke="#1a130d" stroke-width="1.2" fill="none" stroke-linecap="round" opacity="0.7"/>
      <circle cx="0" cy="0" r="2.6" fill="#1a130d"/>
      <circle cx="-12" cy="-7" r="1.5" fill="#d8a83a"/>
      <circle cx="11" cy="-9" r="1.4" fill="#6ec0b8"/>
      <circle cx="-9" cy="9" r="1.4" fill="#b85040"/>
      <circle cx="13" cy="7" r="1.3" fill="#d8a83a"/>
      <circle cx="-2" cy="-15" r="1.3" fill="#bccfe0"/>
      <circle cx="5" cy="14" r="1.2" fill="#6ec0b8"/>
      <circle cx="-15" cy="2" r="1.2" fill="#b85040"/>
      <circle cx="16" cy="-1" r="1.2" fill="#d8a83a"/>
    </g>

    <!-- TALISMAN -->
    <g id="talisman">
      <circle cx="0" cy="0" r="7" fill="#f0e6c8" stroke="#1a1611" stroke-width="0.7"/>
      <path d="M0 -5 L2 -1 L6 0 L2.5 2.5 L3.3 6.5 L0 4.2 L-3.3 6.5 L-2.5 2.5 L-6 0 L-2 -1 Z"
            fill="none" stroke="#a83a2a" stroke-width="1" stroke-linejoin="round"/>
      <circle cx="0" cy="0" r="1.1" fill="#a83a2a"/>
    </g>

    <!-- SPAWN MARKER -->
    <g id="spawn-mark">
      <path d="M 0 -7 L 6 5 L -6 5 Z" fill="#e8dec0" stroke="#1a1611" stroke-width="0.9"/>
      <path d="M -2.5 -2 L -3.5 2 M 0 -3 L 0 2 M 2.5 -2 L 3.5 2"
            stroke="#1a1611" stroke-width="0.9" stroke-linecap="round" fill="none"/>
    </g>

    <!-- NUMBERED PIN -->
    <g id="num-pin">
      <circle r="7.5" fill="#a83a2a" stroke="#1a1611" stroke-width="0.8"/>
    </g>
    <!-- LANDMARK PIN -->
    <g id="lm-pin">
      <circle r="3.5" fill="#a83a2a" stroke="#1a1611" stroke-width="0.6"/>
    </g>

    <!-- ====================================================== -->
    <!--   CHARACTER TOKEN SYMBOLS (60x80 viewBox each)         -->
    <!--   Mounted via <use href="#token-{name}"> by map.js     -->
    <!-- ====================================================== -->
    <symbol id="token-boyd" viewBox="0 0 60 80">
      <ellipse cx="30" cy="76" rx="18" ry="2" fill="#1a1611" opacity="0.3"/>
      <ellipse cx="30" cy="22" rx="22" ry="4" fill="#3a2820" stroke="#1a1611" stroke-width="1"/>
      <path d="M 12 22 Q 30 6 48 22" fill="#3a2820" stroke="#1a1611" stroke-width="1"/>
      <circle cx="30" cy="36" r="11" fill="#5a3e2a" stroke="#1a1611" stroke-width="1"/>
      <path d="M 22 50 Q 30 60 38 50" fill="#1a1611" opacity="0.8"/>
      <ellipse cx="25" cy="34" rx="1" ry="1.4" fill="#1a1611"/>
      <ellipse cx="35" cy="34" rx="1" ry="1.4" fill="#1a1611"/>
      <path d="M 14 65 Q 30 58 46 65 L 48 76 L 12 76 Z" fill="#4a5a68" stroke="#1a1611" stroke-width="1"/>
      <path d="M 30 70 L 31 72.5 L 33.5 72.5 L 31.5 74 L 32 76.5 L 30 75 L 28 76.5 L 28.5 74 L 26.5 72.5 L 29 72.5 Z" fill="#d8a83a"/>
    </symbol>
    <symbol id="token-donna" viewBox="0 0 60 80">
      <ellipse cx="30" cy="76" rx="18" ry="2" fill="#1a1611" opacity="0.3"/>
      <path d="M 14 40 Q 10 22 30 16 Q 50 22 46 40 L 46 60 L 14 60 Z" fill="#3a2418" stroke="#1a1611" stroke-width="1"/>
      <circle cx="30" cy="34" r="11" fill="#c89c7a" stroke="#1a1611" stroke-width="1"/>
      <path d="M 18 28 Q 30 16 42 28 Q 36 30 30 28 Q 24 30 18 28 Z" fill="#3a2418"/>
      <ellipse cx="25" cy="34" rx="1" ry="1.4" fill="#1a1611"/>
      <ellipse cx="35" cy="34" rx="1" ry="1.4" fill="#1a1611"/>
      <path d="M 14 65 Q 30 58 46 65 L 48 76 L 12 76 Z" fill="#6b6e3a" stroke="#1a1611" stroke-width="1"/>
    </symbol>
    <symbol id="token-jim" viewBox="0 0 60 80">
      <ellipse cx="30" cy="76" rx="18" ry="2" fill="#1a1611" opacity="0.3"/>
      <circle cx="30" cy="34" r="11" fill="#d4b59a" stroke="#1a1611" stroke-width="1"/>
      <path d="M 18 28 Q 18 18 30 16 Q 42 16 42 28 Q 36 24 30 24 Q 24 24 18 28 Z" fill="#6a4a2e"/>
      <circle cx="25" cy="34" r="2.5" fill="none" stroke="#1a1611" stroke-width="0.9"/>
      <circle cx="35" cy="34" r="2.5" fill="none" stroke="#1a1611" stroke-width="0.9"/>
      <path d="M 27.5 34 L 32.5 34" stroke="#1a1611" stroke-width="0.9"/>
      <path d="M 14 65 Q 30 58 46 65 L 48 76 L 12 76 Z" fill="#a83a2a" stroke="#1a1611" stroke-width="1"/>
      <path d="M 14 70 L 46 70 M 22 65 L 22 76 M 30 65 L 30 76 M 38 65 L 38 76" stroke="#2a1810" stroke-width="0.7" opacity="0.7"/>
    </symbol>
    <symbol id="token-tabitha" viewBox="0 0 60 80">
      <ellipse cx="30" cy="76" rx="18" ry="2" fill="#1a1611" opacity="0.3"/>
      <path d="M 14 38 Q 10 18 30 14 Q 50 18 46 38 L 46 60 L 14 60 Z" fill="#5a3a24" stroke="#1a1611" stroke-width="1"/>
      <circle cx="30" cy="34" r="11" fill="#c89c7a" stroke="#1a1611" stroke-width="1"/>
      <path d="M 18 26 Q 24 14 30 16 Q 36 14 42 26 Q 36 26 30 24 Q 24 26 18 26 Z" fill="#5a3a24"/>
      <ellipse cx="25" cy="34" rx="1" ry="1.4" fill="#1a1611"/>
      <ellipse cx="35" cy="34" rx="1" ry="1.4" fill="#1a1611"/>
      <path d="M 14 65 Q 30 58 46 65 L 48 76 L 12 76 Z" fill="#787262" stroke="#1a1611" stroke-width="1"/>
    </symbol>
    <symbol id="token-ethan" viewBox="0 0 60 80">
      <ellipse cx="30" cy="76" rx="16" ry="2" fill="#1a1611" opacity="0.3"/>
      <circle cx="30" cy="40" r="10" fill="#e8c8a0" stroke="#1a1611" stroke-width="1"/>
      <path d="M 20 33 Q 22 22 30 22 Q 38 22 40 33 Q 36 30 30 30 Q 24 30 20 33 Z" fill="#d8a83a"/>
      <circle cx="25" cy="40" r="1.4" fill="#fff" stroke="#1a1611" stroke-width="0.4"/>
      <circle cx="35" cy="40" r="1.4" fill="#fff" stroke="#1a1611" stroke-width="0.4"/>
      <circle cx="25" cy="40.5" r="0.7" fill="#1a1611"/>
      <circle cx="35" cy="40.5" r="0.7" fill="#1a1611"/>
      <path d="M 16 66 Q 30 60 44 66 L 46 76 L 14 76 Z" fill="#d4d4c6" stroke="#1a1611" stroke-width="1"/>
      <path d="M 16 64 Q 30 60 44 64 M 14 72 Q 30 68 46 72" stroke="#a83a2a" stroke-width="1.8"/>
    </symbol>
    <symbol id="token-julie" viewBox="0 0 60 80">
      <ellipse cx="30" cy="76" rx="18" ry="2" fill="#1a1611" opacity="0.3"/>
      <path d="M 16 40 Q 12 18 30 14 Q 48 18 44 40 L 46 60 L 14 60 Z" fill="#4a3020" stroke="#1a1611" stroke-width="1"/>
      <circle cx="30" cy="34" r="11" fill="#d4b59a" stroke="#1a1611" stroke-width="1"/>
      <path d="M 18 28 Q 26 14 30 14 Q 34 14 42 28 Q 36 24 30 24 Q 24 24 18 28 Z" fill="#4a3020"/>
      <ellipse cx="25" cy="34" rx="1" ry="1.4" fill="#1a1611"/>
      <ellipse cx="35" cy="34" rx="1" ry="1.4" fill="#1a1611"/>
      <path d="M 14 65 Q 30 58 46 65 L 48 76 L 12 76 Z" fill="#3a4252" stroke="#1a1611" stroke-width="1"/>
      <path d="M 22 68 L 20 76 M 38 68 L 40 76" stroke="#1a1611" stroke-width="0.6"/>
    </symbol>
    <symbol id="token-jade" viewBox="0 0 60 80">
      <ellipse cx="30" cy="76" rx="18" ry="2" fill="#1a1611" opacity="0.3"/>
      <circle cx="30" cy="34" r="11" fill="#b8946c" stroke="#1a1611" stroke-width="1"/>
      <path d="M 18 26 Q 18 14 30 14 Q 42 14 42 26 Q 36 22 30 22 Q 24 22 18 26 Z" fill="#1a1611"/>
      <path d="M 22 32 L 26 33 L 23 35 Z" fill="#1a1611"/>
      <path d="M 38 32 L 34 33 L 37 35 Z" fill="#1a1611"/>
      <path d="M 14 65 Q 30 58 46 65 L 48 76 L 12 76 Z" fill="#1a1611" stroke="#1a1611" stroke-width="1"/>
    </symbol>
    <symbol id="token-kenny" viewBox="0 0 60 80">
      <ellipse cx="30" cy="76" rx="18" ry="2" fill="#1a1611" opacity="0.3"/>
      <circle cx="30" cy="34" r="11" fill="#d8b690" stroke="#1a1611" stroke-width="1"/>
      <path d="M 18 28 Q 22 16 30 16 Q 38 16 42 28 Q 36 24 30 24 Q 24 24 18 28 Z" fill="#1a1611"/>
      <rect x="22" y="32" width="5" height="4" rx="1" fill="none" stroke="#1a1611" stroke-width="0.8"/>
      <rect x="33" y="32" width="5" height="4" rx="1" fill="none" stroke="#1a1611" stroke-width="0.8"/>
      <path d="M 27 34 L 33 34" stroke="#1a1611" stroke-width="0.8"/>
      <path d="M 14 65 Q 30 58 46 65 L 48 76 L 12 76 Z" fill="#94774a" stroke="#1a1611" stroke-width="1"/>
      <path d="M 41 70 L 42 72.5 L 44.5 72.5 L 42.5 74 L 43 76.5 L 41 75 L 39 76.5 L 39.5 74 L 37.5 72.5 L 40 72.5 Z" fill="#bcb4a0"/>
    </symbol>
    <symbol id="token-khatri" viewBox="0 0 60 80">
      <ellipse cx="30" cy="76" rx="18" ry="2" fill="#1a1611" opacity="0.3"/>
      <circle cx="30" cy="34" r="11" fill="#8a6850" stroke="#1a1611" stroke-width="1"/>
      <path d="M 20 28 Q 22 16 30 14 Q 38 16 40 28 Q 36 24 30 24 Q 24 24 20 28 Z" fill="#2a1810"/>
      <path d="M 18 36 Q 18 48 30 52 Q 42 48 42 36 Q 36 44 30 44 Q 24 44 18 36 Z" fill="#2a1810"/>
      <ellipse cx="25" cy="34" rx="1" ry="1.4" fill="#1a1611"/>
      <ellipse cx="35" cy="34" rx="1" ry="1.4" fill="#1a1611"/>
      <path d="M 14 65 Q 30 58 46 65 L 48 76 L 12 76 Z" fill="#1d1814" stroke="#1a1611" stroke-width="1"/>
      <rect x="26" y="60" width="8" height="4" fill="#f0e6c8" stroke="#1a1611" stroke-width="0.5"/>
    </symbol>
    <symbol id="token-sara" viewBox="0 0 60 80">
      <ellipse cx="30" cy="76" rx="18" ry="2" fill="#1a1611" opacity="0.3"/>
      <path d="M 16 38 Q 12 18 30 14 Q 48 18 46 38 L 46 50 L 14 50 Z" fill="#c4a060" stroke="#1a1611" stroke-width="1"/>
      <circle cx="30" cy="34" r="11" fill="#e8d4c0" stroke="#1a1611" stroke-width="1"/>
      <path d="M 18 28 Q 24 14 30 14 Q 36 14 42 28 Q 36 24 30 24 Q 24 24 18 28 Z" fill="#c4a060"/>
      <ellipse cx="25" cy="36" rx="2.2" ry="1.4" fill="#1a1611" opacity="0.25"/>
      <ellipse cx="35" cy="36" rx="2.2" ry="1.4" fill="#1a1611" opacity="0.25"/>
      <circle cx="25" cy="34" r="1.4" fill="#fff" stroke="#1a1611" stroke-width="0.5"/>
      <circle cx="35" cy="34" r="1.4" fill="#fff" stroke="#1a1611" stroke-width="0.5"/>
      <circle cx="25" cy="34" r="0.8" fill="#1a1611"/>
      <circle cx="35" cy="34" r="0.8" fill="#1a1611"/>
      <path d="M 14 65 Q 30 58 46 65 L 48 76 L 12 76 Z" fill="#d8c89a" stroke="#1a1611" stroke-width="1"/>
      <path d="M 14 67 L 46 67" stroke="#a83a2a" stroke-width="1.2"/>
    </symbol>
    <symbol id="token-yellow" viewBox="0 0 60 80">
      <ellipse cx="30" cy="76" rx="18" ry="2" fill="#000" opacity="0.55"/>
      <rect x="20" y="4" width="20" height="18" fill="#1a1611" stroke="#3a3024" stroke-width="1"/>
      <rect x="20" y="20" width="20" height="2" fill="#e8c84a"/>
      <ellipse cx="30" cy="22" rx="18" ry="3" fill="#1a1611" stroke="#3a3024" stroke-width="1"/>
      <ellipse cx="30" cy="38" rx="11" ry="13" fill="#d4c08c" stroke="#1a1611" stroke-width="1"/>
      <ellipse cx="25" cy="36" rx="2.4" ry="2.8" fill="#1a1611"/>
      <ellipse cx="35" cy="36" rx="2.4" ry="2.8" fill="#1a1611"/>
      <circle cx="25" cy="36" r="0.9" fill="#e8c84a"/>
      <circle cx="35" cy="36" r="0.9" fill="#e8c84a"/>
      <path d="M 22 50 Q 30 56 38 50" stroke="#1a1611" stroke-width="1" fill="none"/>
      <path d="M 12 64 Q 30 58 48 64 L 50 76 L 10 76 Z" fill="#e8c84a" stroke="#1a1611" stroke-width="1"/>
      <path d="M 22 60 L 30 66 L 38 60" fill="#c4a838" stroke="#1a1611" stroke-width="0.8"/>
    </symbol>
    <symbol id="token-white" viewBox="0 0 60 80">
      <ellipse cx="30" cy="76" rx="14" ry="1.5" fill="#bccfe0" opacity="0.4"/>
      <g opacity="0.85">
        <path d="M 18 38 Q 14 22 30 18 Q 46 22 42 38 L 44 52 L 16 52 Z" fill="#f0e8d8" stroke="#7a8090" stroke-width="0.9"/>
        <circle cx="30" cy="36" r="10" fill="#e8e0d8" stroke="#7a8090" stroke-width="0.9"/>
        <path d="M 20 30 Q 22 18 30 18 Q 38 18 40 30 Q 34 28 30 28 Q 26 28 20 30 Z" fill="#f0e8d8"/>
        <circle cx="25" cy="34" r="1.5" fill="#7a8090" opacity="0.5"/>
        <circle cx="35" cy="34" r="1.5" fill="#7a8090" opacity="0.5"/>
        <circle cx="25" cy="34" r="0.8" fill="#1a1611"/>
        <circle cx="35" cy="34" r="0.8" fill="#1a1611"/>
        <path d="M 16 65 Q 30 58 44 65 L 46 76 L 14 76 Z" fill="#e8e0d0" stroke="#7a8090" stroke-width="0.9"/>
      </g>
    </symbol>
  </defs>

  <!-- ========================================== -->
  <!--   LAYER 1: FOREST BASE                     -->
  <!-- ========================================== -->
  <rect width="1000" height="700" fill="url(#forest-floor)"/>

  <!-- ========================================== -->
  <!--   LAYER 2: BIG MEADOW (most of the map)    -->
  <!--   The township sits inside this clearing,  -->
  <!--   surrounded by forest at the edges.       -->
  <!-- ========================================== -->
  <g filter="url(#wobble)">
    <path d="M 60 220
             C 80 130, 220 70, 380 80
             C 520 60, 660 70, 800 110
             C 880 140, 940 230, 920 340
             C 950 460, 870 580, 720 620
             C 600 680, 440 690, 300 660
             C 180 640, 60 540, 50 420
             C 30 360, 50 280, 60 220 Z"
          fill="url(#meadow)" stroke="#7a7256" stroke-width="0.9"/>
  </g>

  <!-- contour wisps (topo lines) — subtle paper texture -->
  <g stroke="#8c8662" stroke-width="0.6" fill="none" opacity="0.35" filter="url(#wobble-soft)">
    <path d="M 90 140 Q 180 100 280 130 T 460 160"/>
    <path d="M 60 200 Q 160 170 270 200 T 460 220"/>
    <path d="M 110 280 Q 200 250 290 280"/>
    <path d="M 800 140 Q 870 180 920 230"/>
    <path d="M 860 540 Q 800 580 720 600"/>
    <path d="M 100 540 Q 180 580 270 580"/>
  </g>

  <!-- ========================================== -->
  <!--   LAYER 3: ROCK OUTCROPS                   -->
  <!-- ========================================== -->
  <g id="outcrops" filter="url(#wobble-soft)" opacity="0.85">
    <path d="M 70 90 q 50 -30 90 -10 q 30 30 -10 50 q -50 20 -80 -20 z" fill="url(#rock)" stroke="#a89b76" stroke-width="0.6"/>
    <path d="M 210 130 q 60 -20 80 10 q 10 30 -40 30 q -60 0 -40 -40 z" fill="url(#rock)" stroke="#a89b76" stroke-width="0.6"/>
    <path d="M 60 380 q 40 -30 80 -10 q 30 30 0 60 q -40 30 -80 0 q -20 -40 0 -50 z" fill="url(#rock)" stroke="#a89b76" stroke-width="0.6"/>
    <path d="M 220 470 q 50 -20 70 10 q 0 40 -50 40 q -50 -10 -20 -50 z" fill="url(#rock)" stroke="#a89b76" stroke-width="0.6"/>
    <path d="M 100 580 q 60 -20 80 10 q 10 40 -50 40 q -60 -10 -30 -50 z" fill="url(#rock)" stroke="#a89b76" stroke-width="0.6"/>
    <path d="M 360 60 q 40 -10 60 10 q 0 30 -40 30 q -40 -10 -20 -40 z" fill="url(#rock)" stroke="#a89b76" stroke-width="0.6"/>
    <path d="M 660 110 q 40 -20 60 10 q 10 30 -30 30 q -50 -10 -30 -40 z" fill="url(#rock)" stroke="#a89b76" stroke-width="0.6"/>
    <path d="M 540 220 q 40 -20 70 10 q 0 30 -40 30 q -50 -10 -30 -40 z" fill="url(#rock)" stroke="#a89b76" stroke-width="0.6"/>
    <path d="M 800 340 q 60 -20 80 10 q 0 50 -50 50 q -60 -10 -30 -60 z" fill="url(#rock)" stroke="#a89b76" stroke-width="0.6"/>
    <path d="M 660 540 q 50 -10 70 10 q 0 30 -40 40 q -60 0 -30 -50 z" fill="url(#rock)" stroke="#a89b76" stroke-width="0.6"/>
    <path d="M 350 620 q 40 -10 60 10 q 0 30 -40 30 q -40 -10 -20 -40 z" fill="url(#rock)" stroke="#a89b76" stroke-width="0.6"/>
    <path d="M 480 660 q 40 -10 60 10 q 0 20 -40 20 q -40 -10 -20 -30 z" fill="url(#rock)" stroke="#a89b76" stroke-width="0.6"/>
  </g>

  <!-- ========================================== -->
  <!--   LAYER 4: WATER                           -->
  <!-- ========================================== -->
  <g id="water-bodies" filter="url(#wobble-soft)">
    <!-- LAKE upper-right -->
    <path d="M 700 200 q 50 -20 90 10 q 30 40 0 80 q -50 30 -90 -10 q -30 -40 0 -80 z"
          fill="url(#water)" stroke="#456d7c" stroke-width="1"/>
    <!-- stream feeding lake -->
    <path d="M 660 30 q 20 60 50 100 q 20 40 -10 70" stroke="#7da9b8" stroke-width="3" fill="none" opacity="0.85"/>

    <!-- BRUNDLES pond -->
    <ellipse cx="375" cy="335" rx="22" ry="14" fill="url(#water)" stroke="#456d7c" stroke-width="0.8"/>

    <!-- small upper-left pond -->
    <ellipse cx="155" cy="220" rx="20" ry="12" fill="url(#water)" stroke="#456d7c" stroke-width="0.8"/>
  </g>

  <!-- ========================================== -->
  <!--   LAYER 5: FOREST CANOPY (perimeter)       -->
  <!--   Populated by map.js mulberry32 scatter   -->
  <!-- ========================================== -->
  <g id="forest"></g>

  <!-- ========================================== -->
  <!--   LAYER 6: ROADS                           -->
  <!-- ========================================== -->
  <g id="roads" filter="url(#wobble-soft)">
    <!-- shoulder -->
    <path d="M -20 200
             C 80 240, 160 280, 240 320
             C 300 350, 360 380, 395 405
             L 555 405
             L 575 425
             L 565 555
             C 580 595, 640 640, 720 690
             L 760 720"
          stroke="#2a2622" stroke-width="22" fill="none" stroke-linejoin="round" opacity="0.5"/>
    <!-- asphalt -->
    <path d="M -20 200
             C 80 240, 160 280, 240 320
             C 300 350, 360 380, 395 405
             L 555 405
             L 575 425
             L 565 555
             C 580 595, 640 640, 720 690
             L 760 720"
          stroke="url(#asphalt)" stroke-width="16" fill="none" stroke-linejoin="round"/>
    <!-- center dashes -->
    <path d="M -20 200
             C 80 240, 160 280, 240 320
             C 300 350, 360 380, 395 405
             L 555 405
             L 575 425
             L 565 555
             C 580 595, 640 640, 720 690
             L 760 720"
          stroke="#e8dec0" stroke-width="0.8" stroke-dasharray="5 8" fill="none" opacity="0.55"/>

    <!-- internal town streets (dirt lanes inside the cluster) -->
    <g opacity="0.95">
      <!-- vertical Main Street through town -->
      <path d="M 450 410 L 450 555" stroke="#3a3024" stroke-width="13" fill="none" opacity="0.45" stroke-linecap="round"/>
      <path d="M 450 410 L 450 555" stroke="url(#dirt)" stroke-width="8" fill="none" stroke-linecap="round"/>
      <!-- east-west cross lane -->
      <path d="M 380 485 L 555 485" stroke="#3a3024" stroke-width="11" fill="none" opacity="0.45" stroke-linecap="round"/>
      <path d="M 380 485 L 555 485" stroke="url(#dirt)" stroke-width="7" fill="none" stroke-linecap="round"/>
      <!-- small lane to barn -->
      <path d="M 510 462 L 555 458" stroke="url(#dirt)" stroke-width="5" fill="none" stroke-linecap="round" opacity="0.85"/>
    </g>
  </g>

  <!-- ========================================== -->
  <!--   LAYER 7: NON-TOWN LANDMARKS              -->
  <!-- ========================================== -->

  <!-- BOTTLE TREE (Boyd / Sara) -->
  <g transform="translate(560 55)">
    <use href="#faraway-tree"/>
  </g>

  <!-- FARWAY TREE (Victor / Ethan) -->
  <g transform="translate(735 485)">
    <use href="#faraway-tree"/>
  </g>

  <!-- FARWAY / BOTTLE TREE (bottom) -->
  <g transform="translate(575 660)">
    <use href="#faraway-tree" transform="scale(0.85)"/>
  </g>

  <!-- TALISMAN TOME (small monolith / open book on stone) -->
  <g transform="translate(465 195)" filter="url(#wobble-soft)">
    <rect x="-8" y="-3" width="16" height="10" fill="#6a5238" stroke="#1a1611" stroke-width="0.8"/>
    <rect x="-8" y="-8" width="16" height="6" fill="#e8dec0" stroke="#1a1611" stroke-width="0.6"/>
    <path d="M 0 -8 L 0 -2" stroke="#1a1611" stroke-width="0.5"/>
    <path d="M -6 -6 h 4 M -6 -4 h 4 M 2 -6 h 4 M 2 -4 h 4" stroke="#1a1611" stroke-width="0.3" opacity="0.6"/>
  </g>

  <!-- LOG CABINS (small cluster of 3 cabins) -->
  <g transform="translate(620 230)" filter="url(#wobble-soft)">
    <g transform="translate(-12 -8)">
      <rect x="-9" y="-6" width="18" height="12" fill="#7a5a3a" stroke="#1a1611" stroke-width="0.7"/>
      <polygon points="-11,-6 11,-6 8,-12 -8,-12" fill="#3a2820" stroke="#1a1611" stroke-width="0.7"/>
      <path d="M -9 -3 h 18 M -9 0 h 18 M -9 3 h 18" stroke="#3a2820" stroke-width="0.3" opacity="0.6"/>
    </g>
    <g transform="translate(10 -2)">
      <rect x="-8" y="-5" width="16" height="10" fill="#6e5234" stroke="#1a1611" stroke-width="0.7"/>
      <polygon points="-10,-5 10,-5 7,-10 -7,-10" fill="#3a2820" stroke="#1a1611" stroke-width="0.7"/>
    </g>
    <g transform="translate(-4 10)">
      <rect x="-7" y="-5" width="14" height="10" fill="#7a5a3a" stroke="#1a1611" stroke-width="0.7"/>
      <polygon points="-9,-5 9,-5 6,-10 -6,-10" fill="#3a2820" stroke="#1a1611" stroke-width="0.7"/>
    </g>
  </g>

  <!-- SHACK -->
  <g transform="translate(615 335)" filter="url(#wobble-soft)">
    <rect x="-10" y="-6" width="20" height="12" fill="#5a4632" stroke="#1a1611" stroke-width="0.8"/>
    <polygon points="-12,-6 12,-6 9,-13 -9,-13" fill="#2a1810" stroke="#1a1611" stroke-width="0.8"/>
    <rect x="-2" y="-2" width="4" height="8" fill="#2a1810"/>
  </g>

  <!-- STONE CIRCLE -->
  <g transform="translate(260 510)" filter="url(#wobble-soft)">
    <ellipse cx="0" cy="0" rx="25" ry="14" fill="#9c9276" stroke="#7a7050" stroke-width="0.6" opacity="0.5"/>
    <g fill="#5a4f3a" stroke="#1a1611" stroke-width="0.6">
      <rect x="-23" y="-3" width="3" height="8"/>
      <rect x="-13" y="-9" width="3" height="8"/>
      <rect x="0" y="-11" width="3" height="8"/>
      <rect x="11" y="-9" width="3" height="8"/>
      <rect x="20" y="-3" width="3" height="8"/>
      <rect x="13" y="6" width="3" height="6"/>
      <rect x="-4" y="8" width="3" height="6"/>
      <rect x="-16" y="6" width="3" height="6"/>
    </g>
  </g>

  <!-- ABBY'S GRAVE -->
  <g transform="translate(345 580)" filter="url(#wobble-soft)">
    <rect x="-6" y="-4" width="12" height="6" fill="#9c9276" stroke="#1a1611" stroke-width="0.6"/>
    <rect x="-3" y="-10" width="6" height="6" fill="#cabd9a" stroke="#1a1611" stroke-width="0.6"/>
    <path d="M -1 -8 v 4 M -2 -7 h 2" stroke="#3a3024" stroke-width="0.5"/>
  </g>

  <!-- VICTOR'S HIDEOUT TRUCK -->
  <g transform="translate(275 610) rotate(-10)" filter="url(#wobble-soft)">
    <rect x="-13" y="-4" width="20" height="9" fill="#5a6a52" stroke="#1a1611" stroke-width="0.8"/>
    <rect x="7" y="-7" width="8" height="12" fill="#445040" stroke="#1a1611" stroke-width="0.8"/>
    <rect x="9" y="-5" width="4" height="4" fill="#2a2d2a"/>
    <circle cx="-8" cy="6" r="2.5" fill="#1a1611"/>
    <circle cx="4" cy="6" r="2.5" fill="#1a1611"/>
    <circle cx="12" cy="6" r="2.5" fill="#1a1611"/>
  </g>

  <!-- CAR GRAVEYARD -->
  <g transform="translate(470 615)" filter="url(#wobble-soft)">
    <g transform="translate(-12 4) rotate(15)"><rect x="-10" y="-4" width="20" height="8" rx="2" fill="#6a3a2a" stroke="#1a1611" stroke-width="0.7"/></g>
    <g transform="translate(8 2) rotate(-20)"><rect x="-9" y="-3" width="18" height="6" rx="2" fill="#4a4036" stroke="#1a1611" stroke-width="0.7"/></g>
    <g transform="translate(2 -7) rotate(8)"><rect x="-8" y="-3" width="16" height="6" rx="2" fill="#5a5650" stroke="#1a1611" stroke-width="0.7"/></g>
    <g transform="translate(-2 12) rotate(-5)"><rect x="-9" y="-3" width="18" height="6" rx="2" fill="#3a4036" stroke="#1a1611" stroke-width="0.7"/></g>
  </g>

  <!-- DUNGEON (cave mouth) -->
  <g transform="translate(240 650)" filter="url(#wobble-soft)">
    <ellipse cx="0" cy="0" rx="14" ry="9" fill="#cdc4a3" stroke="#7a7050" stroke-width="0.6"/>
    <path d="M -10 4 q 0 -14 10 -14 q 10 0 10 14 z" fill="#0e0a08" stroke="#1a1611" stroke-width="0.8"/>
    <path d="M -7 0 L -4 -6 M 0 -10 L 0 -4 M 6 -8 L 4 -2" stroke="#3a3024" stroke-width="0.4" opacity="0.8"/>
  </g>

  <!-- CAVE ENTRY -->
  <g transform="translate(390 670)" filter="url(#wobble-soft)">
    <ellipse cx="0" cy="2" rx="12" ry="7" fill="#cdc4a3" stroke="#7a7050" stroke-width="0.6"/>
    <path d="M -8 4 q 0 -12 8 -12 q 8 0 8 12 z" fill="#0e0a08" stroke="#1a1611" stroke-width="0.7"/>
  </g>

  <!-- CRASH SITE -->
  <g transform="translate(720 670) rotate(35)" filter="url(#wobble-soft)">
    <rect x="-12" y="-6" width="24" height="12" rx="2" fill="#6a3a2a" stroke="#1a1611" stroke-width="0.8"/>
    <rect x="-8" y="-4" width="6" height="6" fill="#2a2d2a"/>
    <rect x="2" y="-4" width="6" height="6" fill="#2a2d2a"/>
    <path d="M -16 -2 L -12 -6 M 14 -2 L 18 -6 M 0 -10 L 0 -6" stroke="#a83a2a" stroke-width="0.6"/>
    <!-- smoke -->
    <path d="M -2 -8 q -3 -8 2 -14 q 5 -4 0 -10" stroke="#5a5650" stroke-width="0.8" fill="none" opacity="0.5"/>
  </g>

  <!-- LIGHTHOUSE (140, 585) — lower-left, separate from town -->
  <g filter="url(#wobble-soft)">
    <ellipse cx="140" cy="585" rx="38" ry="26" fill="url(#meadow)" stroke="#7a7256" stroke-width="0.8"/>
  </g>
  <g transform="translate(140 585)">
    <ellipse cx="0" cy="7" rx="22" ry="6" fill="#1a1611" opacity="0.35"/>
    <circle cx="0" cy="0" r="18" fill="#cabd9a" stroke="#1a1611" stroke-width="1.3"/>
    <path d="M -18 0 A 18 18 0 0 1 18 0" fill="#a83a2a" opacity="0.85"/>
    <circle cx="0" cy="0" r="11" fill="#3a261a" stroke="#1a1611" stroke-width="1"/>
    <circle cx="0" cy="0" r="6" fill="#f6c869" stroke="#1a1611" stroke-width="0.9"/>
    <circle cx="0" cy="0" r="2.5" fill="#fff6c8"/>
  </g>
  <!-- lighthouse rotating beam -->
  <g class="lighthouse-beam">
    <polygon points="140,585 105,310 175,310" fill="url(#beamGrad)" opacity="0.55"/>
  </g>

  <!-- ========================================== -->
  <!--   LAYER 8: TOWN BUILDINGS (numbered 1–18) -->
  <!-- ========================================== -->
  <g id="town" filter="url(#wobble-soft)">

    <!-- 1 COLONY HOUSE (385, 420) — NW corner, Victorian, 3-story -->
    <g transform="translate(385 420)">
      <rect x="-22" y="-15" width="44" height="30" fill="#7c5a3e" stroke="#1a1611" stroke-width="1.2"/>
      <polygon points="-25,-15 25,-15 19,-25 -19,-25" fill="#3a261a" stroke="#1a1611" stroke-width="1.2"/>
      <circle cx="-13" cy="-15" r="4" fill="#8a6a4a" stroke="#1a1611" stroke-width="0.8"/>
      <polygon points="-17,-18 -9,-18 -13,-26" fill="#3a261a" stroke="#1a1611" stroke-width="0.8"/>
      <rect x="-22" y="13" width="44" height="4" fill="#5a4030" stroke="#1a1611" stroke-width="0.6"/>
      <rect x="-3" y="0" width="6" height="15" fill="#2a1810"/>
    </g>
    <g class="windows">
      <rect x="368" y="412" width="4" height="4" fill="#f6c869"/>
      <rect x="378" y="412" width="4" height="4" fill="#f6c869"/>
      <rect x="388" y="412" width="4" height="4" fill="#f6c869"/>
      <rect x="398" y="412" width="4" height="4" fill="#f6c869"/>
      <rect x="368" y="422" width="4" height="4" fill="#f6c869"/>
      <rect x="398" y="422" width="4" height="4" fill="#f6c869"/>
    </g>
    <use href="#talisman" transform="translate(385 388) scale(0.55)"/>

    <!-- 2 GREEN HOUSE (418, 400) — small green-roof house -->
    <g transform="translate(418 400) rotate(-3)">
      <rect x="-10" y="-7" width="20" height="14" fill="#a8b07a" stroke="#1a1611" stroke-width="0.9"/>
      <polygon points="-12,-7 12,-7 8,-13 -8,-13" fill="#4a5e34" stroke="#1a1611" stroke-width="0.9"/>
      <rect x="-2" y="-1" width="4" height="8" fill="#2a2a18"/>
    </g>
    <g class="windows">
      <rect x="410" y="396" width="3" height="3" fill="#f6c869"/>
      <rect x="424" y="396" width="3" height="3" fill="#f6c869"/>
    </g>

    <!-- 3 SHED (442, 388) — tiny shed -->
    <g transform="translate(442 388)">
      <rect x="-6" y="-5" width="12" height="10" fill="#5a4632" stroke="#1a1611" stroke-width="0.8"/>
      <polygon points="-7,-5 7,-5 5,-9 -5,-9" fill="#2a1810" stroke="#1a1611" stroke-width="0.8"/>
    </g>

    <!-- 4 CLINIC (478, 402) -->
    <g transform="translate(478 402) rotate(2)">
      <rect x="-13" y="-9" width="26" height="18" fill="#c9bca0" stroke="#1a1611" stroke-width="1"/>
      <polygon points="-15,-9 15,-9 12,-15 -12,-15" fill="#5d4a3a" stroke="#1a1611" stroke-width="1"/>
      <rect x="-2" y="-4" width="4" height="9" fill="#a83a2a"/>
      <rect x="-5" y="-1.5" width="10" height="4" fill="#a83a2a"/>
    </g>
    <g class="windows">
      <rect x="468" y="398" width="3" height="3" fill="#f6c869"/>
      <rect x="486" y="398" width="3" height="3" fill="#f6c869"/>
    </g>
    <use href="#talisman" transform="translate(478 376) scale(0.5)"/>

    <!-- 5 ROOT CELLAR (495, 432) — partly-underground -->
    <g transform="translate(495 432)">
      <ellipse cx="0" cy="2" rx="10" ry="6" fill="#7a5a3a" stroke="#1a1611" stroke-width="0.9"/>
      <ellipse cx="0" cy="2" rx="6" ry="3" fill="#2a1810"/>
      <path d="M -2 1 v -3 M 2 1 v -3" stroke="#3a2418" stroke-width="0.6"/>
    </g>

    <!-- 6 CHOOSING CEREMONY STONE (390, 470) -->
    <g transform="translate(390 470)">
      <ellipse cx="0" cy="5" rx="7" ry="2" fill="#3a3024" opacity="0.5"/>
      <polygon points="-3,4 -4,-5 -1,-9 3,-7 4,4" fill="#6a5f48" stroke="#1a1611" stroke-width="0.7"/>
      <path d="M -2 -4 q 2 -2 4 0" stroke="#3a3024" stroke-width="0.4" fill="none"/>
    </g>

    <!-- 7 CHURCH (385, 510) -->
    <g transform="translate(385 510)">
      <rect x="-18" y="-10" width="36" height="20" fill="#9a8e72" stroke="#1a1611" stroke-width="1"/>
      <polygon points="-21,-10 21,-10 16,-18 -16,-18" fill="#3a3024" stroke="#1a1611" stroke-width="1"/>
      <rect x="-4" y="-22" width="8" height="10" fill="#7a6e58" stroke="#1a1611" stroke-width="0.8"/>
      <polygon points="-5,-22 5,-22 0,-32" fill="#3a3024" stroke="#1a1611" stroke-width="0.8"/>
      <rect x="-0.5" y="-38" width="1" height="6" fill="#1a1611"/>
      <rect x="-2" y="-36" width="4" height="1" fill="#1a1611"/>
      <rect x="-3" y="2" width="6" height="8" fill="#2a1f15"/>
      <circle cx="0" cy="-14" r="1.8" fill="#d4a85a" stroke="#1a1611" stroke-width="0.4"/>
    </g>
    <g class="windows">
      <rect x="372" y="506" width="3" height="4" fill="#f6c869"/>
      <rect x="381" y="506" width="3" height="4" fill="#f6c869"/>
      <rect x="392" y="506" width="3" height="4" fill="#f6c869"/>
      <rect x="401" y="506" width="3" height="4" fill="#f6c869"/>
    </g>
    <use href="#talisman" transform="translate(385 476) scale(0.5)"/>

    <!-- 8 GREY HOUSE (420, 490) -->
    <g transform="translate(420 490) rotate(-2)">
      <rect x="-10" y="-7" width="20" height="14" fill="#7a7468" stroke="#1a1611" stroke-width="0.9"/>
      <polygon points="-12,-7 12,-7 8,-13 -8,-13" fill="#3a3a32" stroke="#1a1611" stroke-width="0.9"/>
      <rect x="-2" y="-1" width="4" height="8" fill="#2a2a22"/>
    </g>
    <g class="windows">
      <rect x="412" y="486" width="3" height="3" fill="#f6c869"/>
      <rect x="426" y="486" width="3" height="3" fill="#f6c869"/>
    </g>

    <!-- 9 BLUE HOUSE (440, 490) -->
    <g transform="translate(440 490) rotate(2)">
      <rect x="-10" y="-7" width="20" height="14" fill="#6a7e92" stroke="#1a1611" stroke-width="0.9"/>
      <polygon points="-12,-7 12,-7 8,-13 -8,-13" fill="#3a4250" stroke="#1a1611" stroke-width="0.9"/>
      <rect x="-2" y="-1" width="4" height="8" fill="#2a3038"/>
    </g>
    <g class="windows">
      <rect x="432" y="486" width="3" height="3" fill="#f6c869"/>
      <rect x="446" y="486" width="3" height="3" fill="#f6c869"/>
    </g>

    <!-- 10 POOL (462, 478) -->
    <g transform="translate(462 478)">
      <rect x="-10" y="-6" width="20" height="12" rx="1" fill="#cabd9a" stroke="#1a1611" stroke-width="0.9"/>
      <rect x="-7" y="-4" width="14" height="8" rx="1" fill="url(#pooltile)" stroke="#1a1611" stroke-width="0.7"/>
      <path d="M -5 -2 L 1 0 L 4 2 M -2 3 L 1 1" stroke="#3a3024" stroke-width="0.4" fill="none" opacity="0.8"/>
    </g>

    <!-- 11 LIUS' HOME (478, 462) -->
    <g transform="translate(478 462)">
      <rect x="-9" y="-7" width="18" height="14" fill="#8a6a48" stroke="#1a1611" stroke-width="0.9"/>
      <polygon points="-11,-7 11,-7 8,-13 -8,-13" fill="#4a3024" stroke="#1a1611" stroke-width="0.9"/>
      <rect x="-2" y="-1" width="4" height="8" fill="#2a1810"/>
    </g>
    <g class="windows">
      <rect x="471" y="458" width="3" height="3" fill="#f6c869"/>
      <rect x="483" y="458" width="3" height="3" fill="#f6c869"/>
    </g>

    <!-- 12 BAR (510, 458) — former gas station -->
    <g transform="translate(510 458) rotate(-2)">
      <rect x="-12" y="-9" width="24" height="4" fill="#3a2820" stroke="#1a1611" stroke-width="0.8"/>
      <rect x="-7" y="-5" width="2" height="3" fill="#a83a2a"/>
      <rect x="-13" y="-2" width="26" height="11" fill="#5a4632" stroke="#1a1611" stroke-width="0.9"/>
      <rect x="-2" y="2" width="4" height="7" fill="#2a1810"/>
      <rect x="-7" y="0" width="14" height="3" fill="#1a1611" stroke="#d8a83a" stroke-width="0.4"/>
      <text x="0" y="2.5" font-size="3" font-family="Georgia, serif" fill="#d8a83a" text-anchor="middle" font-weight="bold" letter-spacing="1">BAR</text>
    </g>
    <g class="windows">
      <rect x="500" y="460" width="3" height="2" fill="#f6c869"/>
      <rect x="514" y="460" width="3" height="2" fill="#f6c869"/>
    </g>

    <!-- 13 BARN (555, 454) -->
    <g transform="translate(555 454) rotate(3)">
      <rect x="-15" y="-10" width="30" height="20" fill="#a83a2a" stroke="#1a1611" stroke-width="1"/>
      <polygon points="-17,-10 17,-10 13,-18 -13,-18" fill="#2a1810" stroke="#1a1611" stroke-width="1"/>
      <rect x="-6" y="-2" width="12" height="12" fill="#3a2418" stroke="#1a1611" stroke-width="0.7"/>
      <path d="M -6 -2 L 6 10 M 6 -2 L -6 10" stroke="#f0e6c8" stroke-width="0.8"/>
      <circle cx="0" cy="-13" r="1.5" fill="#d8a83a" stroke="#1a1611" stroke-width="0.3"/>
    </g>

    <!-- 14 SHERIFF'S OFFICE (490, 510) -->
    <g transform="translate(490 510)">
      <rect x="-13" y="-9" width="26" height="18" fill="#7a5c3e" stroke="#1a1611" stroke-width="1"/>
      <polygon points="-15,-9 15,-9 12,-16 -12,-16" fill="#3a2820" stroke="#1a1611" stroke-width="1"/>
      <rect x="-13" y="7" width="26" height="4" fill="#5a4632" stroke="#1a1611" stroke-width="0.6"/>
      <rect x="-2" y="-3" width="4" height="8" fill="#3a2820"/>
      <path d="M 0 -14 L 1 -11 L 4 -11 L 1.5 -9 L 2.5 -6 L 0 -7.5 L -2.5 -6 L -1.5 -9 L -4 -11 L -1 -11 Z"
            fill="#d8a83a" stroke="#1a1611" stroke-width="0.3"/>
    </g>
    <g class="windows">
      <rect x="482" y="506" width="3" height="3" fill="#f6c869"/>
      <rect x="495" y="506" width="3" height="3" fill="#f6c869"/>
    </g>
    <use href="#talisman" transform="translate(490 484) scale(0.5)"/>

    <!-- 15 BUS (460, 538) -->
    <g transform="translate(460 538) rotate(-5)">
      <rect x="-18" y="-5" width="36" height="9" rx="1.5" fill="#d8a83a" stroke="#1a1611" stroke-width="0.9"/>
      <rect x="-15" y="-3" width="4" height="3" fill="#2a3038"/>
      <rect x="-10" y="-3" width="4" height="3" fill="#2a3038"/>
      <rect x="-5" y="-3" width="4" height="3" fill="#2a3038"/>
      <rect x="0" y="-3" width="4" height="3" fill="#2a3038"/>
      <rect x="5" y="-3" width="4" height="3" fill="#2a3038"/>
      <rect x="10" y="-3" width="4" height="3" fill="#2a3038"/>
      <circle cx="-12" cy="5" r="2" fill="#1a1611"/>
      <circle cx="12" cy="5" r="2" fill="#1a1611"/>
    </g>

    <!-- 16 MATTHEWS' HOME (collapsed) (430, 545) -->
    <g transform="translate(430 545) rotate(4)">
      <rect x="-11" y="-7" width="22" height="14" fill="#7a5640" stroke="#1a1611" stroke-width="0.9"/>
      <polygon points="-13,-7 -2,-7 -4,-12 -10,-13 -13,-7" fill="#3a2820" stroke="#1a1611" stroke-width="0.9"/>
      <polygon points="4,-7 13,-7 11,-11 6,-8" fill="#3a2820" stroke="#1a1611" stroke-width="0.9"/>
      <line x1="-2" y1="-7" x2="4" y2="-7" stroke="#1a1611" stroke-width="0.6"/>
      <path d="M -1 -6 L 2 -10 M 1 -6 L 3 -9" stroke="#3a3024" stroke-width="0.5"/>
      <circle cx="-2" cy="-3" r="1.4" fill="#3a2820"/>
      <circle cx="3" cy="-1" r="1" fill="#3a2820"/>
    </g>
    <use href="#talisman" transform="translate(430 526) scale(0.5)"/>

    <!-- 17 DINER (405, 530) -->
    <g transform="translate(405 530) rotate(-2)">
      <rect x="-12" y="-6" width="24" height="12" fill="#b07a3a" stroke="#1a1611" stroke-width="0.9"/>
      <path d="M -12 -6 Q 0 -12 12 -6" fill="#cdc6b4" stroke="#1a1611" stroke-width="0.9"/>
      <rect x="-14" y="-13" width="2" height="8" fill="#1a1611"/>
      <rect x="-19" y="-17" width="9" height="5" fill="#a83a2a" stroke="#1a1611" stroke-width="0.5"/>
      <text x="-14.5" y="-13" font-size="3.5" font-family="Georgia, serif" fill="#f0e6c8" text-anchor="middle" font-weight="bold">DINER</text>
      <rect x="-9" y="-3" width="18" height="3" fill="#1a1611" opacity="0.5"/>
    </g>
    <g class="windows">
      <rect x="394" y="528" width="20" height="2" fill="#f6c869"/>
    </g>

    <!-- 18 MYERS' HOME (382, 552) -->
    <g transform="translate(382 552) rotate(3)">
      <rect x="-10" y="-7" width="20" height="14" fill="#8a6a48" stroke="#1a1611" stroke-width="0.9"/>
      <polygon points="-12,-7 12,-7 8,-13 -8,-13" fill="#4a3024" stroke="#1a1611" stroke-width="0.9"/>
      <rect x="-2" y="-1" width="4" height="8" fill="#2a1810"/>
    </g>
    <g class="windows">
      <rect x="373" y="548" width="3" height="3" fill="#f6c869"/>
      <rect x="386" y="548" width="3" height="3" fill="#f6c869"/>
    </g>

  </g>

  <!-- ========================================== -->
  <!--   LAYER 9: COMPASS + CARTOUCHE             -->
  <!-- ========================================== -->
  <g id="compass" transform="translate(60 60)">
    <circle r="26" fill="#e3d8b4" stroke="#1a1611" stroke-width="1.1" opacity="0.92"/>
    <polygon points="0,-20 4,0 0,20 -4,0" fill="#1a1611"/>
    <polygon points="-20,0 0,-4 20,0 0,4" fill="#1a1611" opacity="0.5"/>
    <text x="0" y="-28" text-anchor="middle" font-size="9" font-family="Georgia, serif" fill="#1a1611">N</text>
    <text x="0" y="35" text-anchor="middle" font-size="9" font-family="Georgia, serif" fill="#1a1611">S</text>
    <text x="-30" y="3" text-anchor="middle" font-size="9" font-family="Georgia, serif" fill="#1a1611">W</text>
    <text x="30" y="3" text-anchor="middle" font-size="9" font-family="Georgia, serif" fill="#1a1611">E</text>
  </g>

  <g id="cartouche" transform="translate(870 640)">
    <rect x="-110" y="-22" width="220" height="44" fill="#e3d8b4" stroke="#1a1611" stroke-width="1" opacity="0.92"/>
    <text x="0" y="-5" text-anchor="middle" font-size="14" font-family="Iowan Old Style, Georgia, serif" font-style="italic" fill="#1a1611">Map of Fromville</text>
    <text x="0" y="9" text-anchor="middle" font-size="8.5" font-family="Georgia, serif" fill="#5a4632" letter-spacing="2">— the town &amp; its surroundings —</text>
  </g>

  <!-- ========================================== -->
  <!--   LAYER 10: ENTITIES (populated by map.js) -->
  <!-- ========================================== -->
  <g id="entities"></g>

  <!-- grain overlay (always last) -->
  <rect width="1000" height="700" filter="url(#grain)" fill="#000" opacity="0.4" pointer-events="none"/>
</svg>
